<svg width="16" height="8" viewBox="0 0 16 8" fill="none" xmlns="http://www.w3.org/2000/svg">
<path d="M14.9271 4.63425C14.9269 4.63442 14.9268 4.63462 14.9266 4.63479L11.9362 7.6107C11.7122 7.83363 11.3499 7.8328 11.1269 7.60875C10.9039 7.38473 10.9048 7.02238 11.1288 6.79942L13.1365 4.80144L1.01663 4.80144C0.70055 4.80144 0.444336 4.54523 0.444336 4.22915C0.444336 3.91308 0.70055 3.65686 1.01663 3.65686L13.1365 3.65687L11.1288 1.65889C10.9048 1.43593 10.904 1.07358 11.1269 0.849558C11.3499 0.625478 11.7123 0.624706 11.9363 0.847613L14.9266 3.82352C14.9268 3.82369 14.9269 3.82389 14.9271 3.82406C15.1513 4.04777 15.1505 4.41129 14.9271 4.63425Z" fill="#212121"/>
</svg>
